<svg xmlns="http://www.w3.org/2000/svg" viewBox="0 0 512 512">
  <defs>
    <radialGradient id="ball" cx="0.36" cy="0.32" r="0.75">
      <stop offset="0" stop-color="#ffe2b0"/>
      <stop offset="0.28" stop-color="#f0a54a"/>
      <stop offset="0.75" stop-color="#8a4f1c"/>
      <stop offset="1" stop-color="#2a1a0c"/>
    </radialGradient>
    <linearGradient id="cover" x1="0" y1="0" x2="1" y2="1">
      <stop offset="0" stop-color="#2f6b62"/>
      <stop offset="1" stop-color="#1d4741"/>
    </linearGradient>
  </defs>
  <rect id="bg" width="512" height="512" rx="112" fill="#15171b"/>
  <g id="book">
    <!-- page edges -->
    <rect x="150" y="96" width="248" height="330" rx="10" fill="#e9dfc8"/>
    <path d="M384 112v298M374 112v298" stroke="#c9bb9c" stroke-width="3"/>
    <!-- ribbon bookmark -->
    <path d="M318 400h30v62l-15-13-15 13z" fill="#d9483b"/>
    <!-- cover -->
    <rect x="114" y="80" width="262" height="336" rx="14" fill="url(#cover)"/>
    <rect x="114" y="80" width="34" height="336" rx="14" fill="#173a35"/>
    <rect x="140" y="80" width="8" height="336" fill="#173a35"/>
    <!-- specimen window -->
    <rect x="178" y="116" width="170" height="170" rx="10" fill="#15171b" stroke="#f0a54a" stroke-width="6"/>
    <ellipse cx="263" cy="262" rx="52" ry="8" fill="#000" opacity="0.5"/>
    <circle cx="263" cy="198" r="58" fill="url(#ball)"/>
    <ellipse cx="242" cy="174" rx="15" ry="10" fill="#fff" opacity="0.55" transform="rotate(-30 242 174)"/>
    <!-- title lines -->
    <rect x="178" y="316" width="170" height="16" rx="8" fill="#f0a54a"/>
    <rect x="178" y="348" width="112" height="12" rx="6" fill="#e9dfc8" opacity="0.7"/>
  </g>
</svg>
